<svg width="172" height="93" viewBox="0 0 172 93" fill="none" xmlns="http://www.w3.org/2000/svg">
<path d="M44 29C28.288 35.8904 1 20 1 20V86.5C1 86.5 36.1643 74.3837 58 79.5C69.4084 82.1731 85.5 91.5 85.5 91.5C85.5 91.5 104.652 81.7086 118 79.5C138.597 76.0919 171 86.5 171 86.5V20C171 20 142.713 36.791 127 29C118.836 24.952 110.5 12.5 110.5 12.5L87 1L62 12.5C62 12.5 52.733 25.1702 44 29Z" fill="#E6B568" stroke="black"/>
<path d="M42 34C28 37.5 5 26 5 26V81.6354C5 81.6354 38.5095 71.0587 59.3176 75.5249C70.1892 77.8583 85.5235 86 85.5235 86C85.5235 86 103.774 77.4528 116.494 75.5249C136.122 72.5499 167 81.6354 167 81.6354V26.5C167 26.5 140.045 38.243 125.071 31.442C117.291 27.9084 109.347 17.0387 109.347 17.0387L86.9529 7L63.1294 17.0387C63.1294 17.0387 50.7007 31.8248 42 34Z" fill="#E6B568" stroke="black"/>
</svg>
