<svg width="1377" height="761" viewBox="0 0 1377 761" fill="none" xmlns="http://www.w3.org/2000/svg">
<g clip-path="url(#clip0_47:175)">
<path d="M696.257 91.8839L691.658 101.083C693.361 104.361 695.059 107.644 696.751 110.934C698.108 107.462 699.47 103.994 700.839 100.528C699.312 97.6494 697.784 94.7681 696.257 91.8839Z" stroke="#E7B569" stroke-miterlimit="10"/>
<path d="M666.026 105.779L666.131 110.388L505.053 108.925L666.026 105.779Z" stroke="#E7B569" stroke-miterlimit="10"/>
<path d="M677.56 72.7987C678.926 70.9395 680.926 69.935 682.573 70.358C685.287 71.054 686.389 75.4332 685.146 77.548C683.34 80.6055 675.454 80.8257 672.758 76.9752C670.061 73.1247 673.128 65.9523 677.357 64.3222C682.882 62.2075 691.297 69.0539 691.816 75.4421C692.46 83.2665 681.313 89.7163 673.454 91.7165C667.593 93.0989 661.463 92.8212 655.752 90.9146C629.521 82.7818 628.719 58.1367 604.55 51.0349C601.113 50.0304 588.619 46.3296 578.83 53.3434C575.363 55.9047 572.633 59.3343 570.915 63.2866C569.196 67.2389 568.55 71.5744 569.04 75.8562C570.247 85.901 578.072 95.6463 588.222 96.7829C595.897 97.6641 606.435 93.7695 607.607 86.4385C608.585 80.2706 602.902 72.226 596.734 72.4462C593.042 72.5872 588.496 75.724 588.222 80.1208C588.037 83.099 589.817 86.6852 593.025 87.6192C597.122 88.8088 601.51 85.0728 601.704 82.3941C601.704 82.1474 601.774 80.9403 601.034 80.4557C600.819 80.3347 600.582 80.2583 600.337 80.231C600.092 80.2038 599.845 80.2262 599.608 80.2969C599.372 80.3676 599.153 80.4853 598.963 80.6428C598.774 80.8002 598.618 80.9943 598.505 81.2134C598.401 81.5374 598.393 81.8846 598.483 82.2129C598.572 82.5412 598.754 82.8368 599.007 83.0638" stroke="#E7B569" stroke-miterlimit="10"/>
<path d="M579.015 88.4651C579.151 86.4506 578.591 84.4505 577.429 82.7995C576.248 81.2399 574.891 80.8257 574.785 79.5129C574.679 78.2 575.913 76.7197 577.05 76.6756C578.768 76.614 580.442 79.8653 580.68 82.5704C580.822 84.6687 580.234 86.7516 579.015 88.4651V88.4651Z" stroke="#E7B569" stroke-miterlimit="10"/>
<path d="M579.015 88.4651C577.957 90.5622 573.931 97.946 566.256 99.814C555.427 102.457 544.413 92.3685 540.871 83.0726C535.161 68.1639 546.739 49.8982 559.947 41.7654C576.054 31.8351 598.135 36.2055 612.304 44.9198C634.332 58.4804 635.645 81.9271 660.334 89.5665C664.587 90.8787 669.003 91.5876 673.454 91.6724" stroke="#E7B569" stroke-miterlimit="10"/>
<path d="M623.124 53.7663C598.584 39.4392 584.037 40.4349 575.164 44.3119C562.564 49.8277 559.841 61.8727 543.708 65.1681C540.324 65.8554 525.777 68.3137 519.917 59.9518C516.463 55.0528 516.948 47.8099 519.618 43.1223C521.028 40.6288 524.402 36.4875 527.495 37.0161C528.174 37.1307 529.169 37.536 529.319 38.2145C529.654 39.7036 525.698 41.642 525.38 41.8007C523.58 42.6578 521.612 43.109 519.618 43.1223" stroke="#E7B569" stroke-miterlimit="10"/>
<path d="M594.223 37.6153C592.182 36.1707 590.593 34.177 589.64 31.8656C588.687 29.5542 588.41 27.02 588.839 24.557C591.003 25.8838 592.69 27.8629 593.657 30.2094C594.625 32.556 594.823 35.1491 594.223 37.6153Z" stroke="#E7B569" stroke-miterlimit="10"/>
<path d="M598.364 57.9605C600.533 56.2901 603.071 55.1653 605.765 54.6807C608.46 54.1962 611.231 54.3661 613.846 55.1761C612.565 56.6926 610.935 57.875 609.096 58.6214C603.968 60.692 599.219 58.3923 598.364 57.9605Z" stroke="#E7B569" stroke-miterlimit="10"/>
<path d="M725.335 106.475L725.229 111.092L886.361 109.612L725.335 106.475Z" stroke="#E7B569" stroke-miterlimit="10"/>
<path d="M713.792 73.486C712.426 71.6356 710.435 70.6311 708.787 71.0541C706.064 71.7413 704.963 76.1205 706.205 78.2352C707.968 81.2927 715.898 81.513 718.594 77.6625C721.29 73.812 718.233 66.6396 713.995 65.0183C708.47 62.8948 700.064 69.7412 699.535 76.1381C698.901 83.9537 710.038 90.4036 717.898 92.4126C723.763 93.7882 729.894 93.5076 735.609 91.6019C761.831 83.4779 762.633 58.8328 786.802 51.7309C790.238 50.7176 802.733 47.0169 812.531 54.0395C815.995 56.6006 818.724 60.0289 820.442 63.9793C822.161 67.9298 822.808 72.2632 822.32 76.5435C821.104 86.5971 813.289 96.3424 803.129 97.479C795.463 98.3602 784.925 94.4568 783.744 87.1258C782.775 80.9579 788.45 72.9132 794.618 73.1423C798.318 73.2745 802.865 76.4113 803.129 80.8081C803.314 83.7863 801.534 87.3813 798.327 88.3065C794.23 89.496 789.842 85.7601 789.648 83.0814C789.648 82.8347 789.578 81.6276 790.318 81.143C790.532 81.022 790.769 80.9456 791.014 80.9183C791.259 80.891 791.507 80.9134 791.743 80.9842C791.979 81.0549 792.199 81.1726 792.388 81.33C792.578 81.4875 792.734 81.6816 792.847 81.9007C792.952 82.2259 792.961 82.5749 792.872 82.905C792.783 83.2351 792.599 83.5321 792.344 83.7599" stroke="#E7B569" stroke-miterlimit="10"/>
<path d="M812.346 89.17C812.207 87.1526 812.767 85.149 813.932 83.4956C815.104 81.9448 816.46 81.5218 816.575 80.209C816.69 78.8961 815.438 77.4158 814.302 77.3805C812.592 77.31 810.909 80.5702 810.68 83.2753C810.539 85.3734 811.127 87.4559 812.346 89.17V89.17Z" stroke="#E7B569" stroke-miterlimit="10"/>
<path d="M812.346 89.17C813.394 91.2583 817.421 98.6509 825.096 100.51C835.925 103.153 846.939 93.0646 850.49 83.7687C856.191 68.86 844.613 50.5943 831.413 42.4615C815.298 32.5312 793.225 36.9104 779.057 45.6159C757.029 59.1765 755.716 82.6232 731.018 90.2626C726.765 91.5768 722.349 92.2886 717.898 92.3773" stroke="#E7B569" stroke-miterlimit="10"/>
<path d="M768.254 54.4624C792.794 40.1441 807.35 41.1398 816.214 45.0168C828.814 50.5326 831.546 62.5776 847.67 65.8642C851.054 66.5515 865.61 69.0187 871.461 60.648C874.915 55.7489 874.43 48.5148 871.76 43.8184C870.351 41.3248 866.976 37.1835 863.892 37.7122C863.205 37.8356 862.209 38.2321 862.059 38.9105C861.724 40.4085 865.681 42.3469 865.998 42.4967C867.798 43.3569 869.766 43.8082 871.76 43.8184" stroke="#E7B569" stroke-miterlimit="10"/>
<path d="M797.128 38.3202C799.169 36.8756 800.758 34.8819 801.711 32.5705C802.664 30.2591 802.942 27.7249 802.512 25.2619C800.348 26.5887 798.661 28.5678 797.694 30.9143C796.726 33.2609 796.528 35.8539 797.128 38.3202Z" stroke="#E7B569" stroke-miterlimit="10"/>
<path d="M792.987 58.7006C790.819 57.0291 788.28 55.9042 785.586 55.4211C782.891 54.938 780.12 55.1108 777.506 55.9251C778.789 57.4388 780.418 58.6206 782.255 59.3703C787.383 61.3881 792.133 59.0972 792.987 58.7006Z" stroke="#E7B569" stroke-miterlimit="10"/>
<path d="M673.454 91.7077C672.159 91.5755 657.461 89.7604 650.73 76.8254C646.615 68.8953 645.487 56.8679 651.258 50.9644C655.664 46.4706 661.99 47.6337 663.339 43.0871C664.22 40.197 662.678 36.2143 660.184 35.2098C658.572 34.5578 656.281 35.0336 655.981 35.994C655.682 36.9544 656.994 38.1175 658.219 38.6374C660.378 39.5185 662.537 38.1087 662.783 37.9325" stroke="#E7B569" stroke-miterlimit="10"/>
<path d="M648.28 56.0573C649.681 51.5723 647.901 47.6425 645.319 46.7614C644.293 46.4907 643.209 46.5407 642.212 46.9045C641.214 47.2684 640.353 47.9287 639.742 48.7968C637.707 51.8807 640.015 57.7138 643.372 60.8594C645.293 62.6217 646.844 62.9212 647.355 64.7716C647.91 66.763 646.976 69.5649 644.941 70.3668C642.174 71.4594 638.729 68.2873 638.667 65.9611C638.667 65.3091 638.878 64.428 639.354 64.287C640.006 64.1108 641.055 65.3796 641.416 66.5955C641.683 67.6225 641.57 68.7113 641.099 69.6619" stroke="#E7B569" stroke-miterlimit="10"/>
<path d="M654.606 74.7283C653.998 70.543 654.994 68.6398 655.963 67.6793C658.325 65.3267 662.043 67.0625 665.418 64.5954C667.148 63.2057 668.344 61.2598 668.801 59.0884C668.06 60.0623 667.134 60.8798 666.075 61.4938C665.016 62.1078 663.847 62.5061 662.633 62.6657C660.765 62.8067 658.404 62.2692 658.289 61.4057C658.113 60.181 662.537 58.6213 663.109 58.4099C667.083 57.0089 668.784 57.7226 669.277 56.7181C670.158 54.8766 665.991 49.4929 660.422 48.4179C658.005 47.9835 655.514 48.2907 653.276 49.299" stroke="#E7B569" stroke-miterlimit="10"/>
<path d="M736.895 75.0279C736.407 73.7239 735.538 72.597 734.401 71.7942C731.458 69.8117 728.401 71.7149 725.995 70.684C723.942 69.8029 722.021 66.6572 722.233 57.0089" stroke="#E7B569" stroke-miterlimit="10"/>
<path d="M656.721 47.6689C662.343 45.6776 666.361 46.0389 669.057 46.7878C671.753 47.5368 674.123 48.973 676.203 47.898C677.824 47.061 678.494 45.1049 678.802 43.6069C679.231 44.9184 679.305 46.3199 679.017 47.6693C678.729 49.0186 678.09 50.2679 677.163 51.2904C674.52 53.9338 669.771 54.1628 666.264 51.2904" stroke="#E7B569" stroke-miterlimit="10"/>
<path d="M665.532 46.2151C666.619 45.7757 667.601 45.1124 668.415 44.2683C669.229 43.4242 669.856 42.4183 670.255 41.316C671.295 37.9766 669.753 34.0379 666.334 31.8351C667.43 33.9143 667.716 36.3255 667.138 38.6035C666.561 40.8815 665.16 42.8649 663.206 44.1709" stroke="#E7B569" stroke-miterlimit="10"/>
<path d="M718.153 92.3068C719.457 92.1658 734.146 90.3507 740.878 77.4246C745.001 69.4944 746.164 57.4583 740.349 51.5547C735.943 47.061 729.626 48.224 728.277 43.6774C727.396 40.7961 728.929 36.8135 731.423 35.8002C733.036 35.1481 735.326 35.6239 735.626 36.5844C735.926 37.5448 734.613 38.7079 733.397 39.2277C731.229 40.1089 729.07 38.6903 728.824 38.5228" stroke="#E7B569" stroke-miterlimit="10"/>
<path d="M743.327 56.6212C741.935 52.1363 743.706 48.2153 746.296 47.3341C747.32 47.0606 748.404 47.1084 749.4 47.4708C750.396 47.8333 751.256 48.493 751.865 49.3607C753.901 52.4535 751.601 58.2777 748.235 61.4233C746.323 63.1856 744.763 63.4852 744.252 65.3355C743.706 67.3269 744.631 70.1377 746.666 70.9395C749.442 72.0321 752.878 68.8512 752.94 66.5339C752.94 65.8906 752.729 65.0007 752.253 64.8685C751.61 64.6835 750.561 65.9523 750.2 67.1683C749.927 68.1948 750.04 69.2856 750.517 70.2346" stroke="#E7B569" stroke-miterlimit="10"/>
<path d="M737.001 75.3275C737.609 71.1334 736.613 69.2389 735.652 68.2785C733.282 65.9259 729.564 67.6529 726.189 65.1858C724.457 63.7976 723.261 61.851 722.806 59.6787C723.545 60.654 724.472 61.4726 725.53 62.0867C726.589 62.7009 727.76 63.0984 728.974 63.2561C730.833 63.3971 733.194 62.8596 733.318 61.9961C733.485 60.7713 729.07 59.2117 728.489 59.0091C724.515 57.5993 722.814 58.313 722.321 57.3085C721.44 55.4757 725.608 50.0832 731.132 49.0083C733.556 48.583 736.051 48.9057 738.287 49.9335" stroke="#E7B569" stroke-miterlimit="10"/>
<path d="M734.886 48.2593C729.264 46.2768 725.247 46.6292 722.55 47.3782C719.854 48.1271 717.475 49.5722 715.396 48.4884C713.774 47.6073 713.113 45.6952 712.796 44.1973C712.369 45.5095 712.296 46.9115 712.586 48.2609C712.875 49.6103 713.516 50.8591 714.444 51.8807C717.087 54.5241 721.837 54.762 725.343 51.8807" stroke="#E7B569" stroke-miterlimit="10"/>
<path d="M726.083 46.8054C724.995 46.3695 724.011 45.7084 723.195 44.8657C722.38 44.023 721.752 43.0175 721.352 41.9152C720.312 38.5757 721.854 34.6283 725.273 32.4255C724.177 34.5046 723.891 36.9159 724.468 39.1939C725.046 41.4719 726.447 43.4552 728.401 44.7612" stroke="#E7B569" stroke-miterlimit="10"/>
<path d="M695.896 68.5693C695.262 62.5335 694.486 57.4671 693.817 53.5901C692.733 47.3429 692.055 45.1225 690.372 42.9549C688.157 40.3076 685.142 38.4521 681.781 37.6682C681.961 37.1207 682.262 36.6208 682.662 36.2055C683.335 35.5365 684.226 35.1329 685.173 35.0688C684.853 33.8002 684.075 32.6951 682.988 31.9673C680.247 30.3548 676.82 32.9365 675.595 31.5531C674.776 30.672 675.331 28.4075 676.556 27.3149C678.706 25.4029 683.243 26.7246 685.446 29.412C686.427 30.6533 686.999 32.1676 687.085 33.7471C689.55 31.9884 692.518 31.077 695.545 31.1501C698.572 31.2232 701.494 32.2768 703.87 34.1525C704.224 32.3209 705.149 30.6487 706.514 29.3768C708.717 27.3942 712.726 26.0373 714.981 27.8877C716.118 28.8128 716.911 30.6368 716.312 31.4915C715.316 32.9101 711.386 30.3548 708.153 32.2757C707.162 32.8987 706.372 33.7953 705.879 34.8574C706.574 34.9943 707.233 35.2741 707.814 35.6791C708.395 36.0841 708.885 36.6054 709.254 37.21C706.937 37.7915 702.787 39.2278 700.09 42.9902C698.628 45.0256 698.055 47.1138 697.236 53.4932C696.769 57.2908 696.258 62.4102 695.896 68.5693Z" stroke="#E7B569" stroke-miterlimit="10"/>
<path d="M695.755 0.546295C697.192 1.57721 703.218 6.15026 704.135 13.957C704.716 18.8473 703.518 26.9184 698.39 28.8128C697.373 29.1272 696.305 29.2361 695.246 29.1332C694.187 29.0303 693.159 28.7177 692.222 28.2137C686.733 25.1385 687.499 16.1599 687.719 14.2831C688.592 6.62607 694.055 1.91204 695.755 0.546295Z" stroke="#E7B569" stroke-miterlimit="10"/>
</g>
<g clip-path="url(#clip1_47:175)">
<path d="M715.581 693.419L715.506 697.719L830.992 696.34L715.581 693.419Z" stroke="#E7B569" stroke-miterlimit="10"/>
<path d="M676.419 693.419L676.494 697.719L561.008 696.34L676.419 693.419Z" stroke="#E7B569" stroke-miterlimit="10"/>
<path d="M695.686 713.114C694.307 711.416 686.949 702.7 674.85 701.953C661.901 701.133 650.901 709.979 646.483 719.754C644.706 723.702 643.84 727.994 643.947 732.318C650.62 730.545 653.808 727.542 655.509 725.08C658.21 721.124 657.508 717.841 660.307 712.015C661.981 708.557 664.263 705.425 667.046 702.766" stroke="#E7B569" stroke-miterlimit="10"/>
<path d="M668.12 721.633C666.986 718.339 666.883 714.782 667.823 711.429C668.764 708.076 670.704 705.084 673.389 702.848C673.107 704.705 672.983 706.583 673.017 708.461C673.075 712.105 673.694 713.311 673.314 715.224C672.976 716.947 671.828 719.261 668.12 721.633Z" stroke="#E7B569" stroke-miterlimit="10"/>
<path d="M695.686 713.114C697.065 711.416 704.423 702.7 716.522 701.953C729.471 701.133 740.471 709.979 744.89 719.754C746.666 723.702 747.532 727.994 747.425 732.318C740.752 730.545 737.564 727.542 735.863 725.08C733.163 721.124 733.856 717.841 731.065 712.015C729.392 708.557 727.109 705.425 724.326 702.766" stroke="#E7B569" stroke-miterlimit="10"/>
<path d="M723.187 721.633C724.32 718.339 724.424 714.782 723.483 711.429C722.543 708.076 720.602 705.084 717.918 702.848C718.199 704.705 718.323 706.583 718.289 708.461C718.232 712.105 717.612 713.311 717.992 715.224C718.331 716.947 719.479 719.261 723.187 721.633Z" stroke="#E7B569" stroke-miterlimit="10"/>
<path d="M695.637 717.595L695.703 702.052C694.696 702.101 693.71 701.752 692.962 701.082C692.213 700.412 691.761 699.474 691.706 698.474C691.706 696.381 693.671 694.92 695.504 694.83C697.652 694.723 699.906 696.471 699.749 698.663C699.62 699.627 699.134 700.508 698.386 701.135C697.637 701.762 696.681 702.089 695.703 702.052" stroke="#E7B569" stroke-miterlimit="10"/>
<path d="M675.519 731.235C675.168 729.844 675.269 728.379 675.808 727.049C676.452 725.588 677.46 725.071 677.245 724.202C676.989 723.592 676.514 723.099 675.913 722.819C675.312 722.538 674.627 722.49 673.991 722.683C672.546 723.397 672.488 726.877 673.801 729.249C674.235 730.018 674.819 730.693 675.519 731.235V731.235Z" stroke="#E7B569" stroke-miterlimit="10"/>
<path d="M687.139 734.829C685.44 736.132 683.384 736.894 681.242 737.012C677.253 737.143 675.288 734.55 671.117 734.739C669.408 734.846 667.75 735.355 666.278 736.224C667.571 738.594 669.705 740.402 672.265 741.296C676.832 742.74 682.34 740.566 685.66 735.748" stroke="#E7B569" stroke-miterlimit="10"/>
<path d="M691.003 728.707C689.142 730.329 687.798 732.457 687.139 734.829C686.313 738.112 687.576 739.532 687.312 744.8C687.13 748.321 686.965 750.84 685.115 752.58C683.265 754.32 680.424 754.41 679.128 754.328C680.482 754.968 683.662 756.224 686.693 755.026C691.276 753.22 694.125 746.392 691.887 738.76" stroke="#E7B569" stroke-miterlimit="10"/>
<path d="M716.44 731.235C716.783 729.843 716.682 728.381 716.151 727.049C715.506 725.588 714.499 725.071 714.714 724.202C714.969 723.592 715.444 723.099 716.046 722.819C716.647 722.538 717.332 722.49 717.967 722.683C719.404 723.397 719.47 726.877 718.157 729.249C717.723 730.018 717.139 730.693 716.44 731.235V731.235Z" stroke="#E7B569" stroke-miterlimit="10"/>
<path d="M704.82 734.829C706.513 736.147 708.569 736.923 710.716 737.053C714.697 737.184 716.662 734.591 720.833 734.78C722.542 734.884 724.201 735.394 725.672 736.265C724.383 738.635 722.251 740.443 719.693 741.337C715.126 742.781 709.61 740.607 706.298 735.789" stroke="#E7B569" stroke-miterlimit="10"/>
<path d="M700.947 728.707C702.808 730.331 704.154 732.458 704.82 734.829C705.646 738.112 704.374 739.532 704.646 744.8C704.828 748.321 704.993 750.84 706.843 752.58C708.693 754.32 711.534 754.41 712.831 754.328C711.476 754.968 708.297 756.224 705.258 755.026C700.682 753.22 697.825 746.392 700.071 738.76" stroke="#E7B569" stroke-miterlimit="10"/>
<path d="M695.248 741.821C695.52 744.148 695.392 746.504 694.869 748.789C693.944 752.711 692.308 754.197 692.944 756.815C693.399 758.686 694.918 760.696 696.372 760.59C697.825 760.483 698.981 758.128 699.229 756.257C699.592 753.589 698.114 752.317 697.206 748.871C696.6 746.521 696.46 744.076 696.793 741.673" stroke="#E7B569" stroke-miterlimit="10"/>
<path d="M675.519 731.235C677.072 733.327 678.459 733.697 679.169 733.762C682.679 734.107 686.602 729.126 688.311 724.998C689.137 722.979 689.228 721.616 690.739 720.074C691.364 719.338 692.136 718.74 693.006 718.318C693.876 717.895 694.825 717.658 695.793 717.621C696.76 717.584 697.725 717.748 698.625 718.102C699.526 718.457 700.341 718.994 701.021 719.68C702.541 721.083 702.722 722.396 703.721 724.825C704.977 727.87 707.24 733.336 710.617 733.984C711.394 734.132 713.425 734.255 716.439 731.267" stroke="#E7B569" stroke-miterlimit="10"/>
<path d="M696.025 742.511C695.653 742.511 695.356 741.993 695.248 741.821C694.423 740.385 692.713 739.581 691.887 738.76C689.806 736.717 690.186 731.702 691.004 728.707C691.884 725.629 693.67 722.883 696.132 720.82C698.452 722.946 700.121 725.68 700.947 728.707C701.632 731.292 702.375 736.766 700.071 738.76C699.246 739.466 697.536 740.204 696.768 741.698C696.694 741.903 696.421 742.494 696.025 742.511Z" stroke="#E7B569" stroke-miterlimit="10"/>
</g>
<path d="M1363.42 692.318C1360.49 690.061 1359 686.866 1359.7 684.126C1359.93 682.825 1360.63 681.659 1361.67 680.861C1362.14 680.498 1362.7 680.286 1363.28 680.25C1365.02 680.25 1366.49 682.422 1366.94 683.871C1367.75 686.597 1366.34 689.905 1363.42 692.318Z" stroke="#E7B569" stroke-width="0.75" stroke-miterlimit="10"/>
<path d="M1356.39 676.516C1356.49 674.826 1360.37 673.435 1363.59 673.591C1366.81 673.747 1370.3 675.366 1370.27 677.041C1370.25 678.717 1366.51 680.35 1363.27 680.25C1360.03 680.151 1356.29 678.206 1356.39 676.516Z" stroke="#E7B569" stroke-width="0.75" stroke-miterlimit="10"/>
<path d="M1363.34 673.577C1362.37 672.825 1360.78 671.575 1358.74 670.084C1353.94 666.535 1352.84 666.066 1352.4 664.561C1351.56 661.821 1353.31 657.349 1356.6 656.752C1359.89 656.156 1363.31 659.322 1363.02 661.807C1362.79 663.667 1360.35 665.569 1358.81 664.973C1357.62 664.519 1356.75 662.588 1357.41 661.75C1357.89 661.125 1359.25 661.054 1360.59 661.75" stroke="#E7B569" stroke-width="0.75" stroke-miterlimit="10"/>
<path d="M1362.78 673.322C1363.76 672.569 1365.36 671.32 1367.39 669.829C1372.19 666.279 1373.27 665.825 1373.74 664.306C1374.56 661.58 1372.82 657.093 1369.53 656.497C1366.24 655.9 1362.82 659.067 1363.13 661.551C1363.35 663.411 1365.79 665.328 1367.33 664.717C1368.51 664.263 1369.39 662.346 1368.73 661.494C1368.24 660.87 1366.9 660.799 1365.55 661.494" stroke="#E7B569" stroke-width="0.75" stroke-miterlimit="10"/>
<path d="M1363.11 447.501V661.821" stroke="#E7B569" stroke-width="0.75" stroke-miterlimit="10"/>
<path d="M1362.75 112.682C1365.68 114.939 1367.18 118.134 1366.48 120.874C1366.24 122.173 1365.54 123.337 1364.5 124.139C1364.04 124.508 1363.48 124.725 1362.89 124.764C1361.15 124.764 1359.68 122.578 1359.23 121.129C1358.42 118.403 1359.82 115.095 1362.75 112.682Z" stroke="#E7B569" stroke-width="0.75" stroke-miterlimit="10"/>
<path d="M1369.78 128.484C1369.69 130.174 1365.79 131.579 1362.58 131.423C1359.37 131.267 1355.87 129.648 1355.9 127.973C1355.93 126.297 1359.67 124.665 1362.9 124.764C1366.14 124.863 1369.88 126.794 1369.78 128.484Z" stroke="#E7B569" stroke-width="0.75" stroke-miterlimit="10"/>
<path d="M1362.83 131.423C1363.8 132.19 1365.4 133.425 1367.43 134.93C1372.24 138.479 1373.32 138.934 1373.78 140.439C1374.6 143.179 1372.87 147.651 1369.57 148.262C1366.28 148.872 1362.86 145.692 1363.16 143.193C1363.38 141.347 1365.82 139.431 1367.36 140.041C1368.55 140.496 1369.42 142.412 1368.76 143.25C1368.1 144.088 1366.93 143.946 1365.58 143.25" stroke="#E7B569" stroke-width="0.75" stroke-miterlimit="10"/>
<path d="M1363.38 131.679C1362.41 132.431 1360.82 133.68 1358.79 135.171C1353.98 138.721 1352.9 139.189 1352.44 140.694C1351.61 143.435 1353.35 147.907 1356.64 148.503C1359.93 149.1 1363.35 145.933 1363.04 143.449C1362.82 141.589 1360.38 139.686 1358.84 140.283C1357.65 140.737 1356.78 142.668 1357.44 143.506C1357.92 144.13 1359.28 144.201 1360.62 143.506" stroke="#E7B569" stroke-width="0.75" stroke-miterlimit="10"/>
<path d="M1363.06 357.499V143.193" stroke="#E7B569" stroke-width="0.75" stroke-miterlimit="10"/>
<path d="M1369.62 435.361C1368.98 436.5 1367.95 437.356 1366.72 437.761C1365.5 438.166 1364.16 438.09 1362.99 437.548C1362.12 436.97 1361.45 436.124 1361.09 435.135C1360.73 434.146 1360.69 433.066 1360.99 432.053C1361.88 428.972 1366.14 427.638 1369.14 428.319C1373.5 429.327 1376.37 434.907 1375.44 439.564C1374.35 445.045 1368.3 448.424 1363.11 447.501C1356.56 446.322 1354.47 438.868 1354.37 438.485C1353.83 436.053 1353.92 433.523 1354.62 431.134C1355.32 428.746 1356.62 426.579 1358.38 424.841C1362.78 420.453 1366.79 422.683 1371.73 417.742C1372.95 416.535 1377.01 412.545 1375.94 408.3C1375 404.694 1370.5 401.556 1367.43 402.848C1365.29 403.742 1363.62 406.923 1364.63 409.024C1364.86 409.497 1365.19 409.91 1365.6 410.228C1366.02 410.546 1366.5 410.761 1367.01 410.856C1367.89 410.939 1368.78 410.731 1369.54 410.263C1370.29 409.795 1370.88 409.091 1371.21 408.257" stroke="#E7B569" stroke-width="0.75" stroke-miterlimit="10"/>
<path d="M1369.99 369.795C1369.36 368.654 1368.33 367.795 1367.1 367.39C1365.87 366.985 1364.54 367.063 1363.37 367.608C1362.5 368.185 1361.83 369.031 1361.47 370.021C1361.11 371.011 1361.08 372.092 1361.38 373.103C1362.27 376.184 1366.53 377.518 1369.52 376.837C1373.89 375.829 1376.75 370.249 1375.82 365.592C1374.74 360.112 1368.69 356.732 1363.49 357.655C1356.95 358.834 1354.86 366.288 1354.76 366.671C1354.23 369.103 1354.31 371.634 1355.01 374.022C1355.72 376.41 1357.01 378.577 1358.77 380.316C1363.16 384.717 1367.11 382.474 1372.11 387.415C1373.34 388.621 1377.39 392.611 1376.31 396.856C1375.37 400.463 1370.86 403.6 1367.81 402.308C1365.65 401.414 1363.98 398.233 1365.01 396.132C1365.24 395.661 1365.57 395.251 1365.99 394.933C1366.4 394.616 1366.88 394.399 1367.39 394.301C1368.27 394.217 1369.16 394.425 1369.91 394.893C1370.67 395.361 1371.26 396.065 1371.59 396.899" stroke="#E7B569" stroke-width="0.75" stroke-miterlimit="10"/>
<path d="M1350.91 402.181C1357.73 398.219 1363.42 397.509 1365.29 399.809C1365.85 400.724 1366.1 401.802 1366 402.876C1365.89 403.95 1365.44 404.958 1364.71 405.744C1362.36 408.016 1356.63 407.15 1350.91 402.181Z" stroke="#E7B569" stroke-width="0.75" stroke-miterlimit="10"/>
<g clip-path="url(#clip2_47:175)">
<path d="M13.5769 112.682C16.5053 114.939 18.0046 118.134 17.304 120.874C17.0732 122.175 16.368 123.341 15.3284 124.139C14.8637 124.502 14.3024 124.714 13.7171 124.75C11.9797 124.75 10.5084 122.578 10.0601 121.129C9.2474 118.403 10.6626 115.095 13.5769 112.682Z" stroke="#E7B569" stroke-width="0.75" stroke-miterlimit="10"/>
<path d="M20.6109 128.484C20.5128 130.174 16.6316 131.565 13.409 131.409C10.1864 131.253 6.69752 129.634 6.72554 127.959C6.75357 126.283 10.4946 124.65 13.7313 124.75C16.9679 124.849 20.709 126.794 20.6109 128.484Z" stroke="#E7B569" stroke-width="0.75" stroke-miterlimit="10"/>
<path d="M13.6609 131.423C14.6277 132.175 16.225 133.425 18.2567 134.916C23.0626 138.465 24.1554 138.934 24.6038 140.439C25.4445 143.179 23.693 147.651 20.4004 148.248C17.1077 148.844 13.6889 145.678 13.9832 143.193C14.2074 141.333 16.6454 139.431 18.1866 140.027C19.3776 140.481 20.2463 142.412 19.5878 143.25C19.1114 143.875 17.7522 143.946 16.4071 143.25" stroke="#E7B569" stroke-width="0.75" stroke-miterlimit="10"/>
<path d="M14.2217 131.678C13.2409 132.431 11.6435 133.68 9.61187 135.171C4.80595 138.721 3.72712 139.175 3.26474 140.694C2.43807 143.42 4.17548 147.907 7.46817 148.503C10.7608 149.1 14.1796 145.933 13.8714 143.449C13.6472 141.589 11.2092 139.672 9.66797 140.283C8.49101 140.737 7.60829 142.654 8.26683 143.506C8.75723 144.13 10.1023 144.201 11.4474 143.506" stroke="#E7B569" stroke-width="0.75" stroke-miterlimit="10"/>
<path d="M13.8853 357.499L13.8852 143.179" stroke="#E7B569" stroke-width="0.75" stroke-miterlimit="10"/>
<path d="M14.2496 692.318C11.3212 690.061 9.822 686.866 10.5226 684.126C10.7585 682.827 11.4626 681.663 12.4981 680.861C12.9607 680.492 13.5225 680.275 14.1095 680.236C15.8469 680.236 17.3181 682.422 17.7665 683.871C18.5791 686.597 17.178 689.905 14.2496 692.318Z" stroke="#E7B569" stroke-width="0.75" stroke-miterlimit="10"/>
<path d="M7.21563 676.516C7.31371 674.826 11.2089 673.421 14.4175 673.577C17.6261 673.733 21.1289 675.352 21.1009 677.027C21.0729 678.703 17.3318 680.335 14.0952 680.236C10.8586 680.137 7.11755 678.206 7.21563 676.516Z" stroke="#E7B569" stroke-width="0.75" stroke-miterlimit="10"/>
<path d="M14.1655 673.577C13.1987 672.81 11.6015 671.575 9.56983 670.07C4.76391 666.521 3.68499 666.066 3.22262 664.561C2.39594 661.821 4.13336 657.349 7.42604 656.738C10.7187 656.128 14.1375 659.308 13.8433 661.807C13.6191 663.653 11.1811 665.569 9.63987 664.959C8.4489 664.504 7.58019 662.588 8.23873 661.75C8.89726 660.912 10.0742 661.054 11.4193 661.75" stroke="#E7B569" stroke-width="0.75" stroke-miterlimit="10"/>
<path d="M13.6189 673.321C14.5857 672.569 16.1829 671.32 18.2146 669.829C23.0205 666.279 24.0994 665.811 24.5618 664.306C25.3885 661.565 23.651 657.093 20.3584 656.497C17.0657 655.9 13.6469 659.067 13.9551 661.551C14.1793 663.411 16.6173 665.314 18.1586 664.717C19.3495 664.263 20.2182 662.332 19.5597 661.494C19.0833 660.87 17.7242 660.799 16.3791 661.494" stroke="#E7B569" stroke-width="0.75" stroke-miterlimit="10"/>
<path d="M13.9414 447.501L13.9414 661.807" stroke="#E7B569" stroke-width="0.75" stroke-miterlimit="10"/>
<path d="M7.38397 369.639C8.01829 368.5 9.05086 367.644 10.2778 367.239C11.5048 366.834 12.837 366.91 14.0113 367.452C14.8816 368.03 15.546 368.876 15.9066 369.865C16.2673 370.854 16.3052 371.934 16.015 372.947C15.1182 376.028 10.8588 377.362 7.86032 376.681C3.50276 375.673 0.630424 370.093 1.55518 365.436C2.64807 359.955 8.70107 356.576 13.8853 357.499C20.4426 358.678 22.5303 366.132 22.6284 366.515C23.1655 368.947 23.0791 371.477 22.3777 373.866C21.6762 376.254 20.383 378.421 18.6212 380.159C14.2216 384.547 10.2143 382.317 5.26824 387.258C4.04925 388.465 -0.0140652 392.455 1.06481 396.7C2.00358 400.306 6.50125 403.444 9.56975 402.152C11.7135 401.258 13.3809 398.077 12.372 395.976C12.1449 395.503 11.8109 395.09 11.397 394.772C10.9832 394.454 10.5012 394.239 9.99008 394.144C9.10675 394.061 8.22053 394.269 7.46317 394.737C6.70581 395.205 6.11778 395.909 5.78665 396.743" stroke="#E7B569" stroke-width="0.75" stroke-miterlimit="10"/>
<path d="M7.00588 435.205C7.63784 436.346 8.67033 437.205 9.89821 437.61C11.1261 438.015 12.4595 437.937 13.6333 437.392C14.5044 436.815 15.1685 435.969 15.527 434.979C15.8854 433.989 15.9191 432.908 15.6229 431.897C14.7262 428.816 10.4667 427.482 7.4823 428.163C3.11074 429.171 0.25241 434.751 1.17716 439.408C2.25604 444.888 8.30896 448.268 13.5072 447.345C20.0505 446.166 22.1382 438.712 22.2363 438.329C22.7733 435.897 22.6871 433.366 21.9856 430.978C21.2842 428.59 19.9909 426.423 18.229 424.684C13.8435 420.283 9.89221 422.526 4.89014 417.585C3.65713 416.379 -0.392169 412.389 0.68671 408.144C1.62547 404.537 6.13716 401.4 9.19165 402.692C11.3494 403.586 13.0168 406.767 11.9939 408.868C11.7632 409.339 11.4281 409.749 11.0149 410.067C10.6017 410.384 10.1215 410.601 9.61198 410.699C8.72865 410.783 7.84242 410.575 7.08506 410.107C6.3277 409.639 5.73968 408.935 5.40855 408.101" stroke="#E7B569" stroke-width="0.75" stroke-miterlimit="10"/>
<path d="M26.0894 402.819C19.2658 406.781 13.5771 407.491 11.7136 405.191C11.1491 404.276 10.8994 403.198 11.0033 402.124C11.1072 401.05 11.559 400.042 12.2881 399.256C14.6421 396.984 20.3727 397.85 26.0894 402.819Z" stroke="#E7B569" stroke-width="0.75" stroke-miterlimit="10"/>
</g>
<defs>
<clipPath id="clip0_47:175">
<rect width="381.36" height="112" fill="white" transform="translate(505)"/>
</clipPath>
<clipPath id="clip1_47:175">
<rect width="270" height="68" fill="white" transform="translate(561 693)"/>
</clipPath>
<clipPath id="clip2_47:175">
<rect width="27" height="581" fill="white" transform="translate(27 693) rotate(180)"/>
</clipPath>
</defs>
</svg>
