<svg width="459" height="190" viewBox="0 0 459 190" fill="none" xmlns="http://www.w3.org/2000/svg">
<g clip-path="url(#clip0_46:71)">
<path d="M0.620117 0.350006L27.7701 28.35L432.62 29.35L458.27 1.52" stroke="#E6B568" stroke-miterlimit="10"/>
<path d="M78.1401 170.77H380.71" stroke="#E6B568" stroke-miterlimit="10"/>
<path d="M10.3301 11.23C107.26 10.64 177.92 10.79 193.76 10.58C196.45 10.58 207.62 10.18 216.42 17.29C218.77 19.19 221.37 21.35 222.42 24.97C225.05 33.72 217.58 46.82 207.66 47.11C204.734 47.0674 201.882 46.1815 199.447 44.5585C197.011 42.9355 195.096 40.6444 193.93 37.96C193.037 35.8659 192.81 33.5476 193.28 31.32C193.97 28.26 196.23 24.79 199.89 23.67C205.11 22.07 211.96 25.62 212.27 30.23C212.5 33.82 208.67 36.6 208.14 36.98" stroke="#E6B568" stroke-miterlimit="10"/>
<path d="M449.31 11.76C352.7 10.57 282.31 10.35 266.31 10.14C263.58 10.14 252.43 9.76001 243.65 16.85C241.3 18.75 238.7 20.91 237.65 24.53C235.02 33.28 242.49 46.38 252.41 46.67C258.1 46.83 264.03 42.76 266.14 37.52C267.028 35.4246 267.255 33.1079 266.79 30.88C266.1 27.82 263.84 24.35 260.18 23.23C254.96 21.63 248.11 25.18 247.8 29.79C247.57 33.38 251.39 36.16 251.93 36.54" stroke="#E6B568" stroke-miterlimit="10"/>
<path d="M456.01 60.27L432.62 29.38" stroke="#E6B568" stroke-miterlimit="10"/>
<path d="M0.379883 59.9L27.7499 28.4" stroke="#E6B568" stroke-miterlimit="10"/>
<path d="M372.92 156.23C375.06 159.63 375.17 163.53 373.31 165.75C370.64 168.92 364.75 167.65 361.8 165.17C356.8 160.94 357.31 150.65 362.38 145.61C368.17 139.85 379.94 140.88 385.1 146.48C393.36 155.48 380.51 171.6 389.7 183.01C391.558 185.273 393.951 187.037 396.663 188.141C399.375 189.244 402.32 189.653 405.23 189.33C413.59 188.19 422.23 179.42 420.23 170.93C418.4 163.19 408.16 157.4 402.11 160.57C396.68 163.42 394.66 173.47 398.37 176.97C399.57 177.975 401.072 178.548 402.637 178.599C404.201 178.65 405.737 178.175 407 177.25C409.85 174.95 409.34 170.89 409.3 170.64" stroke="#E6B568" stroke-miterlimit="10"/>
<path d="M84.62 156.23C82.48 159.63 82.3699 163.53 84.2299 165.75C86.8999 168.92 92.79 167.65 95.74 165.17C100.74 160.94 100.22 150.65 95.16 145.61C89.37 139.85 77.6 140.88 72.44 146.48C64.18 155.48 77.03 171.6 67.84 183.01C65.9809 185.274 63.5857 187.038 60.8719 188.142C58.1581 189.246 55.2116 189.654 52.3 189.33C43.95 188.19 35.3 179.42 37.35 170.93C39.18 163.19 49.42 157.4 55.47 160.57C60.89 163.42 62.92 173.47 59.21 176.97C58.0099 177.975 56.5076 178.548 54.9433 178.599C53.3789 178.65 51.8427 178.175 50.58 177.25C47.72 174.95 48.24 170.89 48.28 170.64" stroke="#E6B568" stroke-miterlimit="10"/>
</g>
<defs>
<clipPath id="clip0_46:71">
<rect width="458.61" height="189.97" fill="white"/>
</clipPath>
</defs>
</svg>
