<svg width="844" height="782" viewBox="0 0 844 782" fill="none" xmlns="http://www.w3.org/2000/svg">
<path d="M833.267 670.595C830.952 668.413 829.767 665.326 830.321 662.678C830.503 661.42 831.061 660.294 831.883 659.522C832.25 659.172 832.694 658.966 833.156 658.932C834.53 658.932 835.693 661.031 836.047 662.431C836.69 665.065 835.571 668.262 833.267 670.595Z" stroke="#E7B569" stroke-width="0.75" stroke-miterlimit="10"/>
<path d="M827.707 655.323C827.784 653.691 830.852 652.346 833.4 652.497C835.947 652.648 838.705 654.212 838.683 655.831C838.661 657.45 835.704 659.028 833.145 658.932C830.586 658.836 827.629 656.956 827.707 655.323Z" stroke="#E7B569" stroke-width="0.75" stroke-miterlimit="10"/>
<path d="M833.201 652.483C832.437 651.756 831.174 650.549 829.568 649.108C825.769 645.678 824.905 645.225 824.55 643.771C823.886 641.122 825.27 636.8 827.873 636.224C830.476 635.648 833.179 638.708 832.946 641.109C832.769 642.906 830.841 644.745 829.623 644.169C828.682 643.729 827.995 641.863 828.515 641.054C828.892 640.45 829.966 640.382 831.03 641.054" stroke="#E7B569" stroke-width="0.75" stroke-miterlimit="10"/>
<path d="M832.757 652.236C833.533 651.509 834.795 650.302 836.402 648.861C840.201 645.431 841.054 644.992 841.419 643.524C842.073 640.889 840.699 636.553 838.096 635.977C835.493 635.401 832.791 638.461 833.034 640.862C833.211 642.659 835.139 644.511 836.357 643.921C837.288 643.482 837.985 641.63 837.465 640.807C837.077 640.203 836.014 640.134 834.951 640.807" stroke="#E7B569" stroke-width="0.75" stroke-miterlimit="10"/>
<path d="M833.023 434.005V641.123" stroke="#E7B569" stroke-width="0.75" stroke-miterlimit="10"/>
<path d="M832.735 110.439C835.05 112.621 836.236 115.708 835.682 118.356C835.495 119.611 834.939 120.736 834.12 121.512C833.754 121.868 833.31 122.078 832.846 122.115C831.473 122.115 830.31 120.002 829.955 118.603C829.313 115.968 830.421 112.772 832.735 110.439Z" stroke="#E7B569" stroke-width="0.75" stroke-miterlimit="10"/>
<path d="M838.296 125.71C838.218 127.343 835.139 128.702 832.602 128.551C830.066 128.4 827.297 126.835 827.319 125.216C827.341 123.597 830.299 122.019 832.857 122.116C835.416 122.212 838.373 124.078 838.296 125.71Z" stroke="#E7B569" stroke-width="0.75" stroke-miterlimit="10"/>
<path d="M832.802 128.551C833.566 129.292 834.829 130.485 836.435 131.94C840.234 135.37 841.087 135.809 841.452 137.264C842.106 139.912 840.732 144.234 838.129 144.824C835.527 145.414 832.824 142.34 833.056 139.925C833.234 138.142 835.161 136.289 836.379 136.879C837.321 137.318 838.008 139.171 837.487 139.98C836.966 140.79 836.036 140.653 834.973 139.98" stroke="#E7B569" stroke-width="0.75" stroke-miterlimit="10"/>
<path d="M833.234 128.798C832.47 129.525 831.207 130.732 829.601 132.173C825.802 135.603 824.949 136.056 824.583 137.511C823.93 140.159 825.303 144.481 827.906 145.057C830.509 145.633 833.212 142.574 832.968 140.172C832.791 138.375 830.864 136.536 829.645 137.113C828.704 137.552 828.017 139.418 828.538 140.227C828.914 140.831 829.989 140.9 831.052 140.227" stroke="#E7B569" stroke-width="0.75" stroke-miterlimit="10"/>
<path d="M832.979 347.029V139.925" stroke="#E7B569" stroke-width="0.75" stroke-miterlimit="10"/>
<path d="M838.163 422.274C837.662 423.375 836.845 424.202 835.875 424.593C834.905 424.984 833.852 424.911 832.924 424.387C832.236 423.829 831.711 423.011 831.426 422.055C831.14 421.1 831.11 420.056 831.34 419.077C832.049 416.1 835.416 414.81 837.786 415.469C841.231 416.443 843.502 421.835 842.771 426.335C841.907 431.632 837.122 434.897 833.023 434.005C827.84 432.867 826.189 425.663 826.112 425.293C825.687 422.943 825.755 420.497 826.31 418.189C826.865 415.881 827.887 413.787 829.28 412.107C832.758 407.867 835.926 410.021 839.836 405.246C840.799 404.08 844.011 400.225 843.158 396.122C842.416 392.637 838.861 389.605 836.435 390.853C834.74 391.718 833.422 394.791 834.22 396.822C834.399 397.279 834.663 397.678 834.991 397.986C835.318 398.293 835.699 398.501 836.103 398.592C836.801 398.672 837.502 398.471 838.1 398.019C838.699 397.567 839.164 396.887 839.426 396.081" stroke="#E7B569" stroke-width="0.75" stroke-miterlimit="10"/>
<path d="M838.462 358.911C837.962 357.808 837.146 356.978 836.175 356.587C835.205 356.196 834.151 356.271 833.223 356.798C832.534 357.355 832.009 358.173 831.726 359.13C831.442 360.086 831.416 361.131 831.65 362.108C832.359 365.085 835.726 366.375 838.085 365.716C841.541 364.742 843.801 359.35 843.07 354.849C842.217 349.553 837.432 346.288 833.322 347.179C828.15 348.318 826.499 355.522 826.422 355.892C825.997 358.242 826.065 360.688 826.62 362.996C827.175 365.304 828.197 367.398 829.59 369.078C833.057 373.332 836.18 371.164 840.134 375.938C841.109 377.105 844.31 380.96 843.457 385.063C842.715 388.548 839.149 391.58 836.734 390.332C835.028 389.467 833.71 386.394 834.519 384.363C834.701 383.908 834.966 383.512 835.293 383.205C835.619 382.898 835.999 382.688 836.402 382.593C837.1 382.513 837.801 382.713 838.399 383.166C838.998 383.618 839.463 384.298 839.725 385.104" stroke="#E7B569" stroke-width="0.75" stroke-miterlimit="10"/>
<path d="M823.376 390.208C828.77 386.38 833.267 385.694 834.74 387.917C835.187 388.801 835.384 389.843 835.302 390.88C835.22 391.918 834.862 392.893 834.286 393.652C832.425 395.848 827.895 395.011 823.376 390.208Z" stroke="#E7B569" stroke-width="0.75" stroke-miterlimit="10"/>
<path d="M10.7442 110.439C13.0592 112.621 14.2444 115.708 13.6906 118.356C13.5081 119.613 12.9506 120.74 12.1288 121.512C11.7631 121.868 11.3191 122.078 10.855 122.115C9.48154 122.115 8.31852 120.002 7.96407 118.603C7.32164 115.968 8.42928 112.772 10.7442 110.439Z" stroke="#E7B569" stroke-width="0.75" stroke-miterlimit="10"/>
<path d="M16.3045 125.71C16.227 127.343 13.1477 128.702 10.6112 128.551C8.07472 128.4 5.30562 126.835 5.32777 125.216C5.34992 123.597 8.30732 122.019 10.866 122.116C13.4246 122.212 16.382 124.078 16.3045 125.71Z" stroke="#E7B569" stroke-width="0.75" stroke-miterlimit="10"/>
<path d="M10.8105 128.551C11.5748 129.292 12.8375 130.485 14.4436 131.94C18.2428 135.37 19.0957 135.809 19.4612 137.264C20.1147 139.912 18.7413 144.234 16.1383 144.824C13.5353 145.414 10.8327 142.34 11.0653 139.925C11.2425 138.142 13.1698 136.289 14.3882 136.879C15.3297 137.318 16.0165 139.171 15.4959 139.98C14.9753 140.79 14.0449 140.653 12.9815 139.98" stroke="#E7B569" stroke-width="0.75" stroke-miterlimit="10"/>
<path d="M11.2424 128.798C10.4781 129.525 9.2154 130.732 7.60932 132.173C3.81011 135.603 2.95723 136.056 2.59171 137.511C1.9382 140.159 3.31167 144.481 5.91463 145.057C8.51758 145.633 11.2202 142.574 10.9765 140.172C10.7993 138.375 8.87203 136.536 7.65362 137.113C6.71213 137.552 6.02539 139.418 6.54598 140.227C6.92258 140.831 7.99699 140.9 9.06033 140.227" stroke="#E7B569" stroke-width="0.75" stroke-miterlimit="10"/>
<path d="M10.9878 347.029V139.925" stroke="#E7B569" stroke-width="0.75" stroke-miterlimit="10"/>
<path d="M11.276 670.595C8.96103 668.413 7.77585 665.326 8.32967 662.678C8.51213 661.42 9.06961 660.294 9.89145 659.522C10.2588 659.172 10.7025 658.966 11.1652 658.932C12.5387 658.932 13.7017 661.031 14.0562 662.431C14.6986 665.065 13.591 668.262 11.276 670.595Z" stroke="#E7B569" stroke-width="0.75" stroke-miterlimit="10"/>
<path d="M5.71536 655.323C5.79289 653.691 8.86106 652.346 11.4086 652.497C13.9562 652.648 16.7142 654.212 16.6921 655.831C16.6699 657.45 13.7125 659.028 11.1539 658.932C8.59523 658.836 5.63783 656.956 5.71536 655.323Z" stroke="#E7B569" stroke-width="0.75" stroke-miterlimit="10"/>
<path d="M11.2091 652.483C10.4449 651.756 9.18215 650.549 7.57607 649.108C3.77686 645.678 2.9129 645.225 2.55845 643.771C1.89387 641.122 3.27842 636.8 5.88137 636.224C8.48433 635.648 11.187 638.708 10.9544 641.109C10.7771 642.906 8.84985 644.745 7.63145 644.169C6.68995 643.729 6.00322 641.863 6.52381 641.054C6.90041 640.45 7.97482 640.382 9.03815 641.054" stroke="#E7B569" stroke-width="0.75" stroke-miterlimit="10"/>
<path d="M10.7661 652.236C11.5415 651.509 12.8042 650.302 14.4103 648.861C18.2095 645.431 19.0623 644.992 19.4279 643.524C20.0814 640.889 18.7079 636.553 16.1049 635.977C13.502 635.401 10.7993 638.461 11.043 640.862C11.2202 642.659 13.1475 644.511 14.3659 643.921C15.2964 643.482 15.9942 641.63 15.4736 640.807C15.0859 640.203 14.0226 640.134 12.9592 640.807" stroke="#E7B569" stroke-width="0.75" stroke-miterlimit="10"/>
<path d="M11.0322 434.005V641.123" stroke="#E7B569" stroke-width="0.75" stroke-miterlimit="10"/>
<path d="M5.84847 358.76C6.34992 357.66 7.16622 356.832 8.13619 356.441C9.10616 356.05 10.1593 356.123 11.0876 356.647C11.7785 357.205 12.305 358.025 12.5885 358.985C12.872 359.944 12.8972 360.992 12.6605 361.971C11.9516 364.934 8.58435 366.224 6.22507 365.566C2.78031 364.605 0.509646 359.199 1.24069 354.699C2.10465 349.402 6.88965 346.137 10.9879 347.029C16.1717 348.167 17.8221 355.385 17.8996 355.741C18.3242 358.091 18.2559 360.537 17.7014 362.845C17.1469 365.153 16.1245 367.247 14.7318 368.927C11.2538 373.181 8.08591 371.013 4.17594 375.788C3.21229 376.94 0.000132763 380.796 0.853016 384.898C1.59514 388.397 5.15066 391.416 7.57639 390.167C9.27108 389.303 10.5892 386.229 9.79168 384.199C9.61211 383.741 9.34805 383.342 9.02091 383.035C8.69376 382.727 8.31273 382.52 7.90869 382.429C7.21202 382.361 6.51593 382.567 5.91937 383.018C5.32282 383.469 4.85617 384.141 4.58576 384.939" stroke="#E7B569" stroke-width="0.75" stroke-miterlimit="10"/>
<path d="M5.55004 422.123C6.04774 423.228 6.86391 424.06 7.83529 424.452C8.80666 424.843 9.86164 424.766 10.7892 424.236C11.4778 423.679 12.0028 422.861 12.2862 421.904C12.5696 420.947 12.5962 419.903 12.362 418.926C11.6531 415.949 8.28591 414.673 5.92664 415.331C2.4708 416.292 0.211209 421.684 0.942252 426.198C1.79514 431.494 6.58014 434.746 10.6895 433.854C15.8622 432.729 17.5126 425.512 17.5901 425.155C18.0116 422.807 17.9418 420.365 17.3874 418.06C16.833 415.754 15.8123 413.663 14.4222 411.983C10.9553 407.744 7.7764 409.898 3.8775 405.123C2.90278 403.957 -0.298304 400.115 0.554579 395.999C1.2967 392.513 4.8633 389.481 7.27796 390.73C8.98372 391.608 10.3018 394.668 9.49324 396.712C9.30773 397.165 9.04035 397.56 8.71186 397.864C8.38337 398.169 8.00261 398.376 7.59918 398.468C6.90219 398.55 6.20255 398.351 5.60399 397.901C5.00544 397.451 4.53985 396.774 4.27625 395.971" stroke="#E7B569" stroke-width="0.75" stroke-miterlimit="10"/>
<path d="M20.6355 390.826C15.2413 394.654 10.7332 395.34 9.27116 393.117C8.82491 392.233 8.62745 391.191 8.70961 390.154C8.79176 389.116 9.1489 388.142 9.72529 387.382C11.5418 385.187 16.0942 386.024 20.6355 390.826Z" stroke="#E7B569" stroke-width="0.75" stroke-miterlimit="10"/>
<path d="M349 739C348.689 741.6 347.953 744.076 346.845 746.249C344.946 749.824 342.168 752.386 339 753.483C341.594 754.288 343.931 756.179 345.67 758.882C346.793 760.667 347.617 762.753 348.088 765" stroke="#E7B569" stroke-width="0.75" stroke-miterlimit="10"/>
<path d="M344 753.243H402.068C401.232 752.685 400.551 751.745 400.135 750.573C399.719 749.401 399.592 748.065 399.774 746.779C400.317 743.743 402.766 742.752 404.284 742.8C405.41 742.927 406.48 743.539 407.354 744.554C408.227 745.568 408.861 746.937 409.172 748.478C409.992 752.63 407.864 756.452 406.091 758.198C404.865 759.338 403.438 759.962 401.973 759.998C400.508 760.035 399.065 759.481 397.813 758.402C394.267 755.382 393.38 748.729 394.355 744.105C395.995 736.241 403.32 732.34 407.886 734.668C411.654 736.555 411.033 741.431 417.516 750.9C420.841 755.728 423.81 759.975 427.368 759.33C429.95 758.842 433.108 755.728 432.997 751.859C432.909 748.367 430.194 744.64 427.889 745.458C426.226 746.04 424.564 749.107 425.262 751.639C425.563 752.476 426.027 753.173 426.598 753.647C427.17 754.121 427.825 754.352 428.487 754.313" stroke="#E7B569" stroke-width="0.75" stroke-miterlimit="10"/>
<path d="M404.075 762.259C404.233 762.833 404.468 763.355 404.767 763.796C405.065 764.237 405.421 764.588 405.814 764.829C406.208 765.069 406.63 765.194 407.056 765.197C407.483 765.2 407.906 765.08 408.301 764.845C409.034 764.366 409.611 763.499 409.915 762.421C410.218 761.344 410.224 760.139 409.93 759.056C409.076 756.552 405.839 756.422 404.648 758.194C403.187 760.373 404.333 766.032 406.727 768.715C407.604 769.576 408.598 770.158 409.643 770.422C410.687 770.685 411.758 770.624 412.785 770.243C415.674 769.17 415.842 766.389 420.069 762.406C422.575 760.032 424.014 758.682 425.823 758.877C429.487 759.268 433.972 765.902 432.814 772.682C431.949 777.771 428.049 782.145 424.621 780.731C422.496 779.869 420.226 776.633 420.507 772.731C420.788 768.828 423.665 765.3 426.127 766.227C428.004 766.861 429.903 769.999 429.262 772.487C428.745 774.519 426.599 775.901 424.306 774.812" stroke="#E7B569" stroke-width="0.75" stroke-miterlimit="10"/>
<path d="M517 739C517.311 741.703 518.051 744.275 519.166 746.528C521.062 750.241 523.835 752.907 527 754.056C524.404 754.876 522.065 756.836 520.33 759.647C519.208 761.498 518.387 763.665 517.924 766" stroke="#E7B569" stroke-width="0.75" stroke-miterlimit="10"/>
<path d="M522 753.247H463.912C464.748 752.687 465.428 751.747 465.845 750.576C466.263 749.405 466.393 748.069 466.216 746.781C465.662 743.745 463.215 742.754 461.697 742.817C460.569 742.929 459.494 743.535 458.619 744.552C457.744 745.57 457.113 746.948 456.813 748.496C455.994 752.649 458.12 756.456 459.903 758.202C461.127 759.34 462.551 759.962 464.013 759.998C465.475 760.035 466.914 759.483 468.165 758.407C471.709 755.386 472.595 748.732 471.62 744.107C469.981 736.241 462.661 732.34 458.098 734.668C454.333 736.54 454.953 741.417 448.474 750.887C445.151 755.717 442.183 759.964 438.639 759.319C436.048 758.847 432.903 755.717 433.002 751.847C433.091 748.354 435.815 744.626 438.108 745.444C439.78 746.026 441.43 749.109 440.744 751.626C440.44 752.464 439.975 753.16 439.402 753.634C438.829 754.108 438.172 754.339 437.51 754.301" stroke="#E7B569" stroke-width="0.75" stroke-miterlimit="10"/>
<path d="M461.918 763.029C461.76 763.577 461.525 764.077 461.226 764.498C460.928 764.92 460.572 765.256 460.179 765.486C459.786 765.716 459.364 765.835 458.937 765.838C458.51 765.841 458.087 765.726 457.693 765.501C456.96 765.043 456.382 764.214 456.079 763.184C455.776 762.154 455.77 761.002 456.063 759.966C456.917 757.572 460.154 757.447 461.345 759.142C462.817 761.225 461.671 766.651 459.266 769.201C458.391 770.03 457.397 770.589 456.352 770.841C455.307 771.093 454.235 771.032 453.209 770.663C450.321 769.636 450.152 766.978 445.927 763.169C443.421 760.899 441.982 759.608 440.173 759.795C436.509 760.168 432.037 766.511 433.183 772.995C434.048 777.861 437.959 782.043 441.375 780.768C443.499 779.929 445.769 776.835 445.488 773.104C445.207 769.372 442.331 765.998 439.869 766.885C437.993 767.491 436.094 770.507 436.734 772.886C437.262 774.814 439.397 776.135 441.69 775.094" stroke="#E7B569" stroke-width="0.75" stroke-miterlimit="10"/>
<path d="M430.427 746.341C430.749 746.83 431.146 747.23 431.594 747.516C432.041 747.801 432.531 747.966 433.031 748C433.52 747.95 433.997 747.774 434.431 747.484C434.866 747.193 435.251 746.794 435.562 746.31C437.472 743.69 437.009 739.597 436.778 737.767C436.317 734.107 435.008 730.706 433.019 728C431.001 730.709 429.67 734.128 429.198 737.814C429.004 739.674 428.529 743.767 430.427 746.341Z" stroke="#E7B569" stroke-width="0.75" stroke-miterlimit="10"/>
<path d="M508 44C508.31 41.3017 509.05 38.7345 510.166 36.4876C512.057 32.7685 514.833 30.1016 518 28.9594C515.406 28.1242 513.069 26.1606 511.33 23.3529C510.206 21.5038 509.385 19.3359 508.924 17" stroke="#E7B569" stroke-width="0.75" stroke-miterlimit="10"/>
<path d="M513 29.743H454.912C455.748 30.3035 456.428 31.244 456.845 32.4157C457.263 33.5874 457.393 34.9234 457.216 36.2123C456.662 39.2503 454.215 40.2419 452.697 40.1947C451.573 40.0673 450.503 39.4548 449.63 38.4393C448.757 37.4239 448.123 36.0538 447.813 34.5124C446.994 30.3568 449.12 26.5319 450.903 24.7847C452.129 23.6556 453.553 23.0379 455.014 23.0017C456.474 22.9655 457.912 23.5124 459.165 24.5801C462.709 27.6023 463.595 34.2605 462.62 38.8882C460.981 46.6798 453.661 50.6779 449.098 48.3326C445.333 46.4437 445.953 41.5641 439.474 32.1041C436.151 27.256 433.183 23.006 429.639 23.6671C427.048 24.1393 423.903 27.256 424.002 31.1281C424.091 34.6225 426.815 38.3688 429.108 37.5503C430.78 36.9521 432.43 33.8827 431.744 31.3485C431.44 30.5107 430.975 29.8137 430.402 29.3396C429.829 28.8655 429.172 28.6341 428.51 28.6726" stroke="#E7B569" stroke-width="0.75" stroke-miterlimit="10"/>
<path d="M452.918 19.9066C452.756 19.3635 452.518 18.8702 452.217 18.4549C451.917 18.0395 451.56 17.7104 451.167 17.4864C450.775 17.2624 450.354 17.1479 449.929 17.1495C449.505 17.1511 449.085 17.2687 448.693 17.4957C447.96 17.9535 447.382 18.7834 447.079 19.814C446.776 20.8445 446.77 21.9969 447.063 23.033C447.917 25.4284 451.154 25.5528 452.345 23.8574C453.817 21.7731 452.671 16.3602 450.266 13.7937C449.389 12.9693 448.396 12.4126 447.351 12.1605C446.307 11.9084 445.236 11.9667 444.209 12.3316C441.321 13.3582 441.152 16.018 436.927 19.8444C434.421 22.0998 432.982 23.4063 431.173 23.2197C427.509 22.8308 423.037 16.4846 424.183 10.014C425.048 5.12993 428.959 0.945797 432.375 2.23681C434.499 3.06119 436.769 6.17208 436.488 9.88957C436.207 13.6071 433.331 16.9979 430.869 16.1113C428.993 15.5047 427.094 12.5027 427.734 10.1229C428.262 8.17859 430.397 6.85647 432.69 7.89862" stroke="#E7B569" stroke-width="0.75" stroke-miterlimit="10"/>
<path d="M340 44C339.692 41.3061 338.959 38.7399 337.854 36.485C335.949 32.7812 333.17 30.1219 330 28.9701C332.166 28.3279 334.163 26.8719 335.773 24.761C337.384 22.6502 338.546 19.9655 339.132 17" stroke="#E7B569" stroke-width="0.75" stroke-miterlimit="10"/>
<path d="M335 28.7568H393.068C392.232 29.3151 391.551 30.2552 391.135 31.4271C390.719 32.5989 390.592 33.9348 390.774 35.2212C391.317 38.2567 393.766 39.2476 395.284 39.1847C396.411 39.0717 397.486 38.4669 398.36 37.4532C399.235 36.4395 399.868 35.0665 400.172 33.5225C400.992 29.3702 398.864 25.5483 397.091 23.8024C395.865 22.6622 394.438 22.0379 392.973 22.0017C391.508 21.9655 390.065 22.5189 388.813 23.5979C385.267 26.6178 384.38 33.2708 385.355 37.895C386.995 45.7591 394.32 49.6597 398.886 47.3319C402.654 45.4445 402.033 40.5688 408.516 31.1003C411.841 26.2718 414.81 22.0251 418.368 22.67C420.95 23.1418 424.108 26.2718 423.997 30.1409C423.909 33.6326 421.194 37.3602 418.889 36.5423C417.226 35.9604 415.564 32.8934 416.262 30.3611C416.563 29.524 417.027 28.827 417.598 28.3531C418.17 27.8791 418.825 27.648 419.487 27.6873" stroke="#E7B569" stroke-width="0.75" stroke-miterlimit="10"/>
<path d="M395.075 19.7525C395.233 19.1803 395.468 18.6591 395.767 18.219C396.065 17.779 396.421 17.4289 396.814 17.189C397.208 16.949 397.63 16.8241 398.056 16.8213C398.483 16.8186 398.906 16.9381 399.301 17.173C400.034 17.6505 400.611 18.5161 400.915 19.591C401.218 20.6658 401.224 21.8677 400.93 22.9485C400.076 25.4468 396.839 25.5766 395.648 23.8083C394.187 21.6344 395.333 15.9724 397.727 13.3118C398.604 12.452 399.598 11.8713 400.643 11.6084C401.687 11.3454 402.758 11.4063 403.785 11.7868C406.674 12.8576 406.842 15.6318 411.069 19.6065C413.575 21.9751 415.014 23.3216 416.823 23.1269C420.487 22.7376 424.972 16.1185 423.814 9.35334C422.949 4.27546 419.049 -0.0886036 415.621 1.24171C413.496 2.11776 411.226 5.3462 411.507 9.23978C411.788 13.1334 414.665 16.6538 417.127 15.8102C419.004 15.1775 420.903 12.0464 420.262 9.56425C419.745 7.53634 417.599 6.15736 415.306 7.24432" stroke="#E7B569" stroke-width="0.75" stroke-miterlimit="10"/>
<path d="M426.558 35.6589C426.236 35.1696 425.839 34.7698 425.391 34.4844C424.942 34.199 424.453 34.0341 423.952 34C423.464 34.0524 422.99 34.2289 422.557 34.5192C422.124 34.8095 421.741 35.2076 421.431 35.6899C419.531 38.3101 419.994 42.4031 420.213 44.2326C420.675 47.893 421.986 51.2942 423.976 54C425.996 51.2914 427.328 47.8718 427.8 44.186C428.008 42.4031 428.458 38.2326 426.558 35.6589Z" stroke="#E7B569" stroke-width="0.75" stroke-miterlimit="10"/>
</svg>
